# xmcd CD database file
#
# Track frame offsets:
#	300
#	34055
#	58275
#	87294
#	113899
#	136398
#	176645
#	202107
#	230255
#	263692
#	291697
#
# Disc length: 4372 seconds
#
# Revision: 2
# Processed by: cddbd v1.5.2PL0 Copyright (c) Steve Scherf et al.
# Submitted via: CDex 1.70beta2
#
DISCID=aa11100b
DTITLE=Various Jazz Artists - Play It Soul CD 1 (Hard Cover) 2004 (A Smooth Jazz Tribute To Rock 'Rolll)
DYEAR=2004
DGENRE=Jazz
TTITLE0=Lenny White feat. Foley - Kashmir
TTITLE1=Urbanator feat. Herbie Hancock - Chameleon
TTITLE2=Metro feat. Chuck Loeb - I Heard It Through The Grapevine
TTITLE3=Tom Browne feat. Sybil - Back To Life
TTITLE4=Lenny White feat. Chaka Khan - Who Do You Love
TTITLE5=John Clark feat. Anthony Jackson - Mustang Sally
TTITLE6=Tom Browne feat. Najee - Milestones
TTITLE7=Urbanator feat. Tom Browne - Watermelon Man
TTITLE8=Jack Bruce feat. Ginger Baker - Sunshine Of Your Love
TTITLE9=Urbanator feat. Tom Browne - All Blues
TTITLE10=Tom Browne feat. KCB - The Wind Cries Mary
EXTD=YEAR: 2004
EXTT0=
EXTT1=
EXTT2=
EXTT3=
EXTT4=
EXTT5=
EXTT6=
EXTT7=
EXTT8=
EXTT9=
EXTT10=
PLAYORDER=
